<svg width="48" height="48" viewBox="0 0 48 48" fill="none" xmlns="http://www.w3.org/2000/svg">
<path d="M7.02332 7.05164C7.60911 6.46586 8.55886 6.46586 9.14464 7.05164L23.9996 21.9066L38.8545 7.05164C39.4403 6.46586 40.39 6.46586 40.9758 7.05164C41.5616 7.63743 41.5616 8.58718 40.9758 9.17296L26.1209 24.0279L40.9199 38.8269C41.5057 39.4127 41.5057 40.3625 40.9199 40.9482C40.3341 41.534 39.3844 41.534 38.7986 40.9482L23.9996 26.1492L9.20054 40.9482C8.61475 41.534 7.665 41.534 7.07922 40.9482C6.49343 40.3625 6.49343 39.4127 7.07922 38.8269L21.8782 24.0279L7.02332 9.17296C6.43754 8.58718 6.43754 7.63743 7.02332 7.05164Z" fill="#ffffff"/>
</svg>
